<svg width="16" height="16" viewBox="0 0 16 16" fill="none" xmlns="http://www.w3.org/2000/svg">
<path d="M4.0625 5.11621C4.0625 2.94159 5.82538 1.17871 8 1.17871C10.1746 1.17871 11.9375 2.94159 11.9375 5.11621V6.61889C12.363 6.62286 12.7351 6.63272 13.0625 6.65717V5.11621C13.0625 2.32027 10.7959 0.0537109 8 0.0537109C5.20406 0.0537109 2.9375 2.32027 2.9375 5.11621V6.65717C3.26488 6.63272 3.63698 6.62286 4.0625 6.61889V5.11621Z" fill="white"/>
<path fill-rule="evenodd" clip-rule="evenodd" d="M0.5 11.1162C0.5 8.99489 0.5 7.93423 1.15901 7.27522C1.81802 6.61621 2.87868 6.61621 5 6.61621H11C13.1213 6.61621 14.182 6.61621 14.841 7.27522C15.5 7.93423 15.5 8.99489 15.5 11.1162C15.5 13.2375 15.5 14.2982 14.841 14.9572C14.182 15.6162 13.1213 15.6162 11 15.6162H5C2.87868 15.6162 1.81802 15.6162 1.15901 14.9572C0.5 14.2982 0.5 13.2375 0.5 11.1162ZM7.47781 9.96921C7.19119 9.79337 7 9.47712 7 9.11621C7 8.56393 7.44772 8.11621 8 8.11621C8.55229 8.11621 9 8.56393 9 9.11621C9 9.47712 8.80881 9.79337 8.52219 9.96921C8.54819 10.034 8.5625 10.1047 8.5625 10.1787V13.1787C8.5625 13.4894 8.31066 13.7412 8 13.7412C7.68934 13.7412 7.4375 13.4894 7.4375 13.1787V10.1787C7.4375 10.1047 7.45181 10.034 7.47781 9.96921Z" fill="white"/>
</svg>
