<svg width="85" height="26" viewBox="0 0 85 26" fill="none" xmlns="http://www.w3.org/2000/svg">
<path d="M78.0839 4.36686C77.6243 3.99351 77.1404 3.6445 76.576 3.43348C75.9793 3.20622 75.3665 3.01143 74.7294 2.91403C74.0763 2.81663 73.3989 2.79228 72.7216 2.8491C72.02 2.91403 71.3024 3.07636 70.6009 3.35231C70.0364 3.57145 69.4961 3.83929 68.972 4.16395C68.4237 4.49672 67.9157 4.88631 67.4319 5.33271C66.9238 5.79534 66.4642 6.3229 66.053 6.90728C65.6175 7.51601 65.2385 8.18967 64.9321 8.91202C64.6015 9.67496 64.3596 10.4622 64.2145 11.282C64.0613 12.1342 64.0048 13.0027 64.0532 13.8711C64.1016 14.772 64.2709 15.6648 64.5531 16.5333C64.8434 17.4261 65.2466 18.2783 65.7707 19.0737C67.1254 21.1434 68.9639 22.6449 71.0282 23.5215C73.0199 24.3737 75.1004 24.601 77.084 24.2682C78.9064 23.9598 80.5675 23.1968 81.9544 22.0605C83.2043 21.0379 84.2042 19.7474 84.9138 18.2458C84.9541 18.1566 84.9863 18.0511 84.9944 17.9374C85.0025 17.8319 85.0025 17.7102 84.9863 17.5965C84.9702 17.4829 84.938 17.3693 84.8976 17.2638C84.8493 17.1583 84.7928 17.0609 84.7283 16.9797C84.6557 16.8985 84.5832 16.8336 84.5106 16.793C84.438 16.7524 84.3574 16.7281 84.2848 16.7281C84.2122 16.7281 84.1397 16.7524 84.0752 16.793C84.0106 16.8336 83.9542 16.8985 83.9058 16.9878C83.2446 18.2053 82.3495 19.2279 81.261 20.0071C80.0756 20.8593 78.6806 21.395 77.1727 21.5573C75.568 21.7359 73.8908 21.4762 72.3023 20.7457C70.6654 19.9909 69.1978 18.7815 68.0769 17.142C67.6576 16.5333 67.319 15.8759 67.0771 15.1941C66.8351 14.5204 66.6739 13.8305 66.5932 13.1325C66.5207 12.4508 66.5287 11.769 66.6094 11.0953C66.69 10.446 66.8432 9.80482 67.069 9.18798C67.2061 8.7984 67.3754 8.41693 67.5689 8.05981C67.7544 7.7108 67.956 7.38615 68.1818 7.06961C68.3995 6.7693 68.6333 6.48523 68.8914 6.21739C69.1333 5.95767 69.3913 5.72229 69.6655 5.50315C69.8106 5.38952 69.9477 5.28401 70.0928 5.17849C70.238 5.0811 70.3831 4.9837 70.5363 4.88631C70.6815 4.79703 70.8347 4.71586 70.9879 4.6347C71.1331 4.55353 71.2943 4.48049 71.4475 4.41556C71.6249 4.34251 71.7943 4.26946 71.9717 4.21265C72.1491 4.15583 72.3184 4.10713 72.4958 4.05844C72.6732 4.01785 72.8425 3.98539 73.0199 3.95292C73.1893 3.92857 73.3667 3.91234 73.536 3.89611C73.3828 3.94481 73.2377 4.00974 73.1006 4.07467C72.9474 4.1396 72.8103 4.21265 72.6651 4.29381C72.52 4.37497 72.3829 4.46425 72.2458 4.55353C72.1088 4.65093 71.9717 4.75644 71.8427 4.86196C71.754 4.935 71.6653 5.01617 71.5846 5.09733C71.504 5.17849 71.4153 5.26778 71.3346 5.35706C71.254 5.44634 71.1734 5.54373 71.1008 5.64113C71.0282 5.73852 70.9557 5.84404 70.8831 5.94955C70.3267 6.80989 69.988 7.79197 69.8671 8.83086C69.738 9.93469 69.8671 11.0791 70.238 12.1829C70.625 13.3273 71.2701 14.3987 72.1329 15.2834C73.0038 16.1762 74.0601 16.8579 75.2616 17.2475C75.9551 17.4748 76.6486 17.6047 77.3259 17.6452C77.9871 17.6858 78.6322 17.6452 79.2451 17.5235C79.8418 17.4017 80.4062 17.2151 80.9384 16.9553C81.4464 16.7037 81.9141 16.3953 82.3415 16.0301C82.7527 15.6811 83.1075 15.2834 83.4139 14.8613C83.7042 14.4555 83.9542 14.0253 84.1477 13.5627C84.3332 13.1244 84.4783 12.6699 84.5832 12.1992C84.6799 11.7446 84.7364 11.2739 84.7525 10.795C84.7928 9.65061 84.6315 8.54679 84.3332 7.52413C84.051 6.55828 83.6317 5.63301 83.1075 4.78891C82.5995 3.96916 81.9867 3.1981 81.2771 2.51633C80.5755 1.83455 79.7611 1.20959 78.8499 0.690145C78.7935 0.657679 78.729 0.63333 78.6725 0.617097C78.6161 0.600865 78.5596 0.600864 78.5032 0.600864C78.4468 0.600864 78.4064 0.617097 78.3661 0.641446C78.3258 0.665795 78.3016 0.698261 78.2774 0.738843C78.2613 0.779425 78.2532 0.828123 78.2613 0.876821C78.2694 0.925519 78.2855 0.982334 78.3177 1.03103C78.35 1.07973 78.3822 1.13654 78.4387 1.17713C78.479 1.22582 78.5435 1.26641 78.6 1.29887C79.4224 1.7615 80.1562 2.32153 80.7852 2.93838C81.4222 3.55522 81.9705 4.25323 82.4221 4.99182C82.8817 5.75476 83.2446 6.58263 83.4784 7.45108C83.7284 8.36011 83.8332 9.33407 83.7687 10.3324C83.7445 10.7301 83.68 11.1197 83.5833 11.493C83.4865 11.8826 83.3494 12.256 83.172 12.605C82.9946 12.9702 82.7689 13.3111 82.5108 13.6357C82.2447 13.9685 81.9302 14.2688 81.5835 14.5285C81.2206 14.8045 80.8255 15.0318 80.4062 15.2103C79.9708 15.397 79.5111 15.5187 79.0273 15.5918C78.5274 15.6648 78.0194 15.673 77.4872 15.6161C76.9469 15.5593 76.4067 15.4376 75.8583 15.2428C75.6406 15.1697 75.431 15.0805 75.2294 14.9749C75.0278 14.8776 74.8262 14.7639 74.6327 14.6341C74.4391 14.5123 74.2537 14.3743 74.0763 14.2364C73.8989 14.0903 73.7295 13.9442 73.5683 13.7818C73.9069 13.9523 74.2537 14.0903 74.6085 14.1958C74.9633 14.3013 75.3181 14.3743 75.6729 14.4068C76.0196 14.4474 76.3744 14.4474 76.7211 14.423C77.0598 14.3987 77.3985 14.3419 77.721 14.2526C78.2048 14.1227 78.6645 13.9442 79.0757 13.7169C79.4789 13.4978 79.8418 13.2462 80.1724 12.954C80.4868 12.6699 80.7691 12.3615 81.011 12.0206C81.2448 11.6878 81.4464 11.3388 81.5996 10.9573C81.7528 10.5921 81.8738 10.2269 81.9464 9.84541C82.0189 9.48017 82.0593 9.10682 82.0673 8.73346C82.0673 8.36823 82.0431 8.00299 81.9867 7.63775C81.9302 7.28063 81.8415 6.92351 81.7206 6.57451C81.4303 5.70606 81.011 4.91066 80.503 4.20453C80.003 3.50652 79.4063 2.88156 78.729 2.33777C78.0516 1.79397 77.2937 1.32322 76.4712 0.949868C75.6245 0.568399 74.6972 0.284326 73.6973 0.138232C72.391 -0.0565612 71.0766 -0.0403285 69.7864 0.154464C68.3672 0.373606 66.9642 0.828123 65.6417 1.51801C64.1661 2.28907 62.7711 3.35231 61.618 4.69963C60.3117 6.21739 59.2957 8.09227 58.7957 10.2512C58.7635 10.3973 58.7715 10.5353 58.8199 10.657C58.8683 10.7788 58.957 10.8843 59.0699 10.9736C59.1908 11.0547 59.336 11.1197 59.5053 11.1603C59.6747 11.1927 59.8682 11.2008 60.0778 11.1765C60.2794 11.1521 60.481 11.1034 60.6665 11.0304C60.8519 10.9573 61.0213 10.86 61.1664 10.7544C61.3116 10.6489 61.4325 10.5272 61.5212 10.3892C61.6099 10.2593 61.6744 10.1214 61.6906 9.98338C61.9808 8.2059 62.6985 6.63944 63.6903 5.33271C64.5854 4.14772 65.6901 3.1981 66.8997 2.49198C67.9963 1.85078 69.1817 1.40438 70.3993 1.16901C71.5201 0.949868 72.6813 0.909286 73.8344 1.04726C74.6972 1.15278 75.5035 1.38004 76.2373 1.70469C76.955 2.02123 77.6243 2.41893 78.221 2.8978C78.8096 3.36855 79.3257 3.92046 79.7611 4.52919C80.1966 5.15415 80.5514 5.84404 80.7852 6.59886C80.8739 6.89105 80.9384 7.18324 80.9787 7.48354C81.019 7.78385 81.0271 8.07604 81.019 8.37634C81.0029 8.67665 80.9626 8.97696 80.89 9.26914C80.8094 9.56945 80.7046 9.86164 80.5675 10.1457C80.4223 10.4379 80.253 10.7057 80.0514 10.9573C79.8498 11.2171 79.6079 11.4443 79.3499 11.6554C79.0757 11.8664 78.7854 12.0531 78.4548 12.2073C78.1242 12.3615 77.7613 12.4832 77.3824 12.5644C77.0759 12.6293 76.7695 12.6618 76.455 12.6537C76.1406 12.6537 75.818 12.6131 75.5035 12.54C75.181 12.467 74.8665 12.3534 74.5601 12.2154C74.2537 12.0693 73.9553 11.8907 73.6731 11.6797C73.3989 11.4687 73.1328 11.2252 72.899 10.9655C72.6651 10.7057 72.4636 10.4217 72.2862 10.1295C72.1168 9.83729 71.9797 9.52887 71.891 9.21233C71.8023 8.89579 71.7781 8.41693 71.7943 8.09227C71.8023 7.90559 71.883 7.52413 71.9313 7.37803C71.9878 7.23194 72.0442 7.09396 72.1088 6.95598C72.1733 6.818 72.2458 6.69626 72.3103 6.57451C72.6006 6.05506 72.9877 5.64924 73.4312 5.33271C73.8586 5.0324 74.3343 4.82949 74.8343 4.71586C75.3181 4.61035 75.818 4.586 76.318 4.65905C76.7776 4.72398 77.205 4.87007 77.6001 5.0811C77.6646 5.11356 77.7291 5.14603 77.8017 5.16226C77.8662 5.17849 77.9307 5.1785 77.9871 5.17038C78.0436 5.16226 78.1 5.13791 78.1484 5.11356C78.1968 5.0811 78.2371 5.04052 78.2613 4.99182C78.2855 4.94312 78.3016 4.88631 78.3097 4.82949C78.3097 4.77268 78.3016 4.70775 78.2855 4.65093C78.2694 4.586 78.2371 4.52919 78.1968 4.47237C78.1887 4.46425 78.1403 4.40744 78.0839 4.36686Z" fill="#00B6C9"/>
<path d="M11.287 24.8736L10.4881 19.61C10.3242 18.5593 10.2218 17.741 10.1399 16.9833H10.1091C9.96575 17.6905 9.78139 18.4482 9.4946 19.3372L7.72269 24.8736H5.58205L3.87159 19.7616C3.57456 18.8624 3.28778 17.8622 3.15463 16.9833H3.1239C3.06245 17.9633 2.93954 18.8321 2.80639 19.7919L2.17137 24.8736H0L1.7207 13.8413H4.24031L6.11465 19.509C6.38095 20.297 6.57555 21.0446 6.72919 21.8326H6.75991C6.92379 20.984 7.10815 20.3576 7.38469 19.5494L9.31024 13.8413H11.8094L13.5506 24.8736H11.287Z" fill="white"/>
<path d="M20.8532 20.7734C20.8532 22.4201 20.0543 23.2587 19.0096 23.2587C17.7805 23.2587 17.1762 22.41 17.1762 20.7431C17.1762 19.0761 18.1083 18.3588 19.0506 18.3588C20.2899 18.3588 20.8532 19.2075 20.8532 20.7734ZM23.0451 20.6623C23.0451 17.8638 21.5395 16.5908 19.2042 16.5908C16.7051 16.5908 14.9946 18.4194 14.9946 20.9552C14.9946 23.8446 16.5002 25.0368 18.8457 25.0368C21.3039 25.0368 23.0451 23.2082 23.0451 20.6623Z" fill="white"/>
<path d="M39.8427 19.7204H36.811C36.9237 18.7405 37.5382 18.104 38.419 18.104C39.3101 18.104 39.8734 18.7102 39.8427 19.7204ZM41.9526 20.1953C41.9526 18.1848 40.8874 16.5684 38.4907 16.5684C36.0223 16.5684 34.6294 18.397 34.6294 20.8823C34.6294 23.7414 36.0838 25.0345 38.7058 25.0345C39.7301 25.0345 40.7748 24.8527 41.6556 24.5092L41.461 22.8927C40.744 23.216 39.8734 23.3979 39.0541 23.3979C37.528 23.3979 36.77 22.6604 36.7905 21.1449H41.8912C41.9321 20.8014 41.9526 20.4781 41.9526 20.1953Z" fill="white"/>
<path d="M43.6829 18.208C43.5497 18.016 43.4678 17.7837 43.4678 17.5311C43.4678 17.2785 43.5497 17.0563 43.6726 16.8643C44.6764 16.7532 45.8542 16.7128 46.8989 16.7431C46.8989 17.1674 46.8477 17.8241 46.7453 18.3898H46.776C47.1755 17.3594 47.9744 16.4602 49.3981 16.5713L49.2956 18.6323C47.7695 18.3191 47.0116 19.2991 47.0116 21.552V24.8759H44.9119V18.3494C44.5739 18.2989 44.113 18.2383 43.6829 18.208Z" fill="white"/>
<path d="M54.581 14.4279C54.581 13.7207 53.9869 13.165 53.2597 13.165C52.553 13.165 51.9487 13.7409 51.9487 14.4279C51.9487 15.1351 52.5428 15.7008 53.2597 15.7008C53.9767 15.7008 54.581 15.1351 54.581 14.4279Z" fill="white"/>
<path d="M58.4529 25.0373C57.8589 25.0373 57.2648 24.9767 56.7322 24.8858L56.7835 23.1683C57.2956 23.2996 57.9203 23.4107 58.5554 23.4107C59.3645 23.4107 59.8971 23.0875 59.8971 22.5419C59.8971 21.0972 56.5684 21.9256 56.5684 19.1575C56.5684 17.733 57.7462 16.561 60.0712 16.561C60.5526 16.561 61.0852 16.6217 61.5768 16.7126L61.5154 18.3593C61.0545 18.228 60.5014 18.1472 59.9893 18.1472C59.1597 18.1472 58.7602 18.4705 58.7602 18.9756C58.7602 20.2991 62.1402 19.7131 62.1402 22.3398C62.1299 23.9563 60.7062 25.0373 58.4529 25.0373Z" fill="white"/>
<path d="M27.4185 16.73C27.4185 17.124 27.3877 17.7605 27.3058 18.1848L27.3263 18.205C27.8179 17.2452 28.7807 16.5684 30.1224 16.5684C31.9763 16.5684 32.5703 17.7403 32.5703 19.1648V24.8628H30.4707V19.6699C30.4707 18.8213 30.2351 18.3161 29.4567 18.3161C28.3812 18.3161 27.5311 19.5285 27.5311 20.9429V24.8628H25.4315V18.3465C25.0935 18.2858 24.6326 18.2353 24.2024 18.1949C24.0692 18.003 23.9873 17.7706 23.9873 17.518C23.9873 17.2655 24.0692 17.0432 24.1922 16.8512C25.1959 16.7401 26.3738 16.6997 27.4185 16.73Z" fill="white"/>
<path d="M54.3148 16.7309C53.2394 16.7006 52.0103 16.741 50.9758 16.8522C50.8427 17.0441 50.771 17.2765 50.771 17.519C50.771 17.7715 50.8427 18.0039 50.9758 18.1958C51.406 18.2363 51.8669 18.2868 52.2049 18.3474V24.8637H54.3148V16.7309Z" fill="white"/>
</svg>
