<?xml version="1.0" encoding="utf-8"?>
<!-- Generator: Adobe Illustrator 27.5.0, SVG Export Plug-In . SVG Version: 6.00 Build 0)  -->
<svg version="1.1" id="Capa_1" xmlns="http://www.w3.org/2000/svg" xmlns:xlink="http://www.w3.org/1999/xlink" x="0px" y="0px"
	 viewBox="0 0 2122 2122" style="enable-background:new 0 0 2122 2122;" xml:space="preserve">
<g>
	<path style="fill:#F7B6A4;" d="M1797.53,722.376c31.617-56.091-15.928-94.447-55.87-87.711
		c-13.809,2.329-53.392,22.415-99.27,47.696c-0.167-0.217-0.324-0.442-0.514-0.639c57.921-54.683,116.55-113.01,133.744-140.356
		c37.062-58.947-12.307-102.845-55.798-97.641c-17.655,2.113-74.677,32.715-136.195,68.329c-0.229-0.545-0.52-1.05-0.853-1.518
		c36.266-32.305,67.496-62.994,79.777-82.527c37.062-58.947-12.307-102.845-55.798-97.641
		c-12.401,1.484-42.608,13.585-79.443,30.118l-13.287-140.826c-1.568-16.62-16.313-28.822-32.933-27.254l-569.512,53.736
		c-16.62,1.568-28.822,16.312-27.254,32.933l18.033,191.117c-0.022,0.019-0.039,0.042-0.061,0.062
		c-1.128,0.97-2.023,2.204-2.511,3.613c-14.943-2.725-27.254,4.266-32.239,23.762c-16.138,63.116-138.61,305.604-157.535,430.34
		c-13.833,84.103-2.306,417.319-27.665,504.881c-25.359,87.562-368.863,496.198-368.863,496.198h685.265
		c0,0,43.24-182.664,118.139-271.938c32.343-38.551,95.956-105.044,157.804-168.163l325.832-30.743
		c16.62-1.568,28.822-16.312,27.254-32.932l-28.165-298.497c67.302-76.393,151.276-174.489,167.014-205.697
		c26.996-53.529-18.875-87.16-55.735-79.178c-8.273,1.792-25.482,10.124-47.175,21.953c-0.096-0.366-0.238-0.719-0.386-1.069
		C1719.728,811.01,1781.367,751.049,1797.53,722.376z"/>
	<path style="fill:#6E7ABA;" d="M1627.775,1425.271l-28.165-298.497l-20.174-213.817l-17.452-184.96l-18.171-192.594
		l-16.504-174.917l-13.287-140.826c-1.568-16.62-16.313-28.822-32.933-27.254l-569.512,53.735
		c-16.62,1.568-28.822,16.313-27.254,32.933l18.033,191.117c1.04-0.927,2.299-1.585,3.682-1.882
		c2.236-0.566,4.618-0.204,6.511,1.455c6.065,3.313,11.831,7.076,17.296,11.22c7.922,6.008,15.196,12.817,21.767,20.284
		c6.334,7.197,12.042,14.968,17.024,23.211c26.024,43.068,31.643,93.324,26.598,142.529c-3.327,32.443-9.84,64.475-18.948,95.765
		c-4.524,15.538-9.716,30.876-15.514,45.987v0c-3.686,9.605-7.579,19.125-11.747,28.525c6.829,15.55,13.148,31.323,18.9,47.295
		c0.001,0,0.001,0.001,0.001,0.001c12.688,35.227,22.565,71.426,28.348,108.501c8.594,55.105,8.254,111.381-2.455,165.926
		c0,0,0,0.001,0,0.001c-3.22,16.404-7.339,32.658-12.484,48.668c-2.272,7.071-4.793,14.03-7.42,20.94l24.161,256.064
		c1.568,16.62,16.313,28.822,32.932,27.254l243.68-22.992l325.832-30.743C1617.14,1456.636,1629.343,1441.891,1627.775,1425.271z"/>
	<path style="fill:#2CBAD8;" d="M1592.361,1352.072L1592.361,1352.072L1592.361,1352.072l-77.968-826.336l-24.897-263.872
		l-575.205,54.273l0,0l4.698,49.797l10.856,115.052c7.922,6.008,15.196,12.817,21.767,20.284
		c6.334,7.197,12.042,14.968,17.024,23.211c26.024,43.068,31.643,93.324,26.598,142.529c-3.327,32.443-9.84,64.475-18.948,95.765
		c-4.524,15.538-9.716,30.876-15.514,45.987v0l7.153,75.82c0.001,0,0.001,0.001,0.001,0.001
		c12.688,35.227,22.565,71.426,28.348,108.501c8.594,55.105,8.254,111.381-2.455,165.926c0,0,0,0.001,0,0.001l24.765,262.467h0
		l108.545-10.241l466.66-44.031v0h0L1592.361,1352.072z"/>
	<path style="fill:#5057A3;" d="M1234.092,248.546l-102.931,9.712c-6.244,0.589-10.871,6.18-10.282,12.424
		c0.59,6.244,6.18,10.871,12.424,10.282l102.932-9.712c6.244-0.589,10.871-6.18,10.281-12.424
		C1245.927,252.584,1240.336,247.957,1234.092,248.546z"/>
	<path style="fill:#5057A3;" d="M1267.646,245.38c-6.271,0.592-10.874,6.154-10.282,12.424c0.592,6.27,6.154,10.874,12.424,10.282
		c6.27-0.592,10.873-6.154,10.282-12.424C1279.478,249.392,1273.916,244.789,1267.646,245.38z"/>
	<path style="fill:#5057A3;" d="M1368.128,1400.718l-119.582,11.283c-11.355,1.072-19.692,11.146-18.621,22.501l2.261,23.967
		c1.072,11.355,11.146,19.692,22.501,18.621l119.582-11.283c11.356-1.071,19.692-11.145,18.621-22.501l-2.261-23.967
		C1389.558,1407.983,1379.484,1399.647,1368.128,1400.718z"/>
	<path style="fill:#E49679;" d="M1576.232,507.185c-2.262,0.101-3.972,0.939-5.717,2.368c-7.056,5.777-14.113,11.554-21.169,17.33
		c-1.509,1.235-2.368,3.85-2.368,5.717c0,0.281,0.057,0.579,0.091,0.872c0.209,1.772,1.001,3.673,2.277,4.845
		c1.541,1.414,3.564,2.465,5.717,2.368c2.261-0.101,3.972-0.939,5.717-2.368c7.057-5.777,14.113-11.554,21.169-17.331
		c1.509-1.235,2.369-3.849,2.369-5.717c0-1.035-0.25-2.168-0.692-3.215c-0.229-0.545-0.52-1.05-0.853-1.518
		c-0.253-0.355-0.517-0.702-0.825-0.983C1580.408,508.138,1578.385,507.089,1576.232,507.185z"/>
	<path style="fill:#E49679;" d="M1630.364,681.627c-6.749,6.125-13.401,12.354-20.007,18.632
		c-14.68,13.952-29.029,28.25-42.98,42.935c-7.166,7.543,4.249,18.997,11.434,11.434c20.229-21.293,41.238-41.828,62.987-61.567
		c2.992-2.715,2.969-7.616,0.592-10.699c-0.168-0.217-0.324-0.442-0.514-0.639c-0.029-0.029-0.049-0.066-0.077-0.095
		C1638.58,678.409,1633.607,678.683,1630.364,681.627z"/>
	<path style="fill:#E49679;" d="M1650.025,859.588c-10.857,10.211-21.714,20.422-32.57,30.634
		c-10.803,10.161-21.608,20.322-32.411,30.483c-7.596,7.144,3.854,18.563,11.434,11.434c21.66-20.373,43.321-40.744,64.981-61.117
		c2.346-2.207,2.867-4.819,2.255-7.169c-0.096-0.366-0.238-0.719-0.386-1.069C1661.346,858.097,1654.898,855.004,1650.025,859.588z"
		/>
	<path style="fill:#E49679;" d="M1646.444,722.213c-2.59-3.507-7.007-5.272-11.062-2.901c-3.459,2.023-5.509,7.529-2.9,11.062
		c15.705,21.269,31.41,42.538,47.115,63.807c2.589,3.507,7.007,5.272,11.062,2.901c3.459-2.024,5.509-7.529,2.901-11.062
		C1677.854,764.75,1662.15,743.481,1646.444,722.213z"/>
	<path style="fill:#E49679;" d="M1680.086,584.279c2.748,3.235,8.643,3.039,11.433,0c3.161-3.443,2.932-7.983,0-11.434
		c-14.355-16.897-28.711-33.794-43.067-50.691c-2.749-3.235-8.644-3.04-11.433,0c-3.161,3.443-2.932,7.983,0,11.433
		C1651.375,550.485,1665.731,567.382,1680.086,584.279z"/>
	<path style="fill:#E49679;" d="M1594.526,464.538c3.271-3.562,2.778-7.849,0-11.434c-12.46-16.076-25.997-31.287-40.519-45.527
		c-3.023-2.964-8.46-3.239-11.433,0c-2.939,3.201-3.226,8.27,0,11.434c14.523,14.241,28.06,29.451,40.519,45.527
		C1585.696,467.897,1591.826,467.479,1594.526,464.538z"/>
	<path style="fill:#E49679;" d="M1662.45,998.329c2.815,3.341,8.531,2.903,11.433,0c3.309-3.308,2.823-8.085,0-11.434
		c-14.753-17.506-29.505-35.012-44.258-52.519c-2.816-3.341-8.532-2.902-11.434,0c-3.308,3.309-2.822,8.085,0,11.434
		C1632.944,963.317,1647.697,980.823,1662.45,998.329z"/>
	<path style="fill:#E49679;" d="M887.63,1561.267c-28.794,52.516-57.587,105.032-86.381,157.55
		c-5.005,9.129,8.952,17.298,13.962,8.161c28.794-52.516,57.587-105.033,86.381-157.55
		C906.598,1560.298,892.639,1552.13,887.63,1561.267z"/>
	<path style="fill:#E49679;" d="M899.435,475.262C899.435,475.262,899.435,475.262,899.435,475.262
		c-0.393,2.029,0.007,4.14,1.437,5.862c5.742,10.98,8.148,22.56,5.547,34.821c-2.389,11.268-4.856,22.712-8.435,33.656
		c-4.758,14.551-11.596,28.357-20.079,41.095c-1.926,2.891-3.926,5.742-6.036,8.502c-1.478,1.935-4.855,4.76-6.418,7.199
		c-0.055-0.028-0.109-0.056-0.164-0.084c-1.439-1.42-4.373-2.245-6.233-3.2c-4.155-2.133-8.31-4.267-12.465-6.4
		c-9.241-4.744-17.431,9.203-8.161,13.962c4.848,2.489,9.695,4.978,14.543,7.467c4.238,2.176,8.624,5.177,13.501,5.31
		c8.911,0.244,14.634-9.814,19.36-16.092c10.894-14.47,19.458-30.551,25.692-47.549c4.815-13.129,8.052-27.087,10.745-40.813
		c1.557-7.931,1.612-15.629,0.41-23.128c41.804,33.42,60,90.822,58.355,143.501c-1.225,39.23-8.653,78.404-19.368,116.085
		c-5.335,18.761-11.617,37.256-18.827,55.379c-1.784,4.484-3.623,8.946-5.54,13.375c-1.665,3.849-5.093,8.822-5.093,13.082
		c0,4.582,3.787,10.115,5.573,14.269c2.271,5.282,4.461,10.6,6.589,15.941c26.001,65.235,42.294,134.734,41.991,205.2
		c-0.219,50.947-9.302,101.505-27.052,149.268c-12.058,32.444-28.299,63.059-46.906,92.192c-1.586,2.482-3.185,4.956-4.791,7.426
		c-5.689,8.75,8.304,16.863,13.962,8.161c16.478-25.342,31.183-51.664,43.337-79.192c3.189-7.224,6.196-14.534,9.009-21.933
		c2.627-6.91,5.148-13.869,7.42-20.94c5.145-16.01,9.264-32.264,12.484-48.668c0,0,0-0.001,0-0.001
		c10.709-54.546,11.049-110.821,2.455-165.926c-5.783-37.075-15.66-73.274-28.348-108.501c0,0,0-0.001-0.001-0.001
		c-5.752-15.972-12.07-31.745-18.9-47.295c4.167-9.4,8.061-18.92,11.747-28.525v0c5.798-15.112,10.99-30.449,15.514-45.987
		c9.107-31.29,15.621-63.323,18.948-95.765c5.045-49.205-0.574-99.461-26.598-142.529c-4.982-8.243-10.69-16.014-17.024-23.211
		c-6.571-7.467-13.845-14.277-21.767-20.284c-5.465-4.145-11.231-7.907-17.296-11.22c-1.893-1.659-4.275-2.021-6.511-1.455
		c-1.384,0.298-2.642,0.955-3.682,1.882c-0.022,0.019-0.039,0.042-0.061,0.062c-1.128,0.97-2.023,2.204-2.511,3.613
		c-0.141,0.407-0.245,0.829-0.314,1.261C899.459,475.173,899.444,475.217,899.435,475.262z"/>
	<polygon style="fill:#73CAE6;" points="933.969,314.28 1592.36,1352.072 1514.393,525.736 1489.496,261.864 	"/>
	<path style="fill:#0080A6;" d="M951.611,501.27l-17.643-186.99l-19.678,1.856l4.698,49.797l10.856,115.052
		C937.766,486.993,945.041,493.803,951.611,501.27z"/>
	<path style="fill:#0080A6;" d="M976.285,762.775c-4.524,15.538-9.716,30.876-15.514,45.987l7.154,75.822
		c12.688,35.227,22.565,71.426,28.348,108.501c8.594,55.105,8.254,111.381-2.455,165.926l24.765,262.469l108.545-10.241
		l466.66-44.031h0l-1.428-15.137h0l-555.528,52.416L976.285,762.775z"/>
</g>
</svg>
