<svg width="67" height="24" viewBox="0 0 67 24" fill="none" xmlns="http://www.w3.org/2000/svg">
<rect y="0.276855" width="66.1262" height="22.9417" rx="11.4709" fill="#4C0D94"/>
<path fill-rule="evenodd" clip-rule="evenodd" d="M19.5703 9.86277C19.5105 9.89744 18.5202 10.4713 18.5314 11.6413C18.5434 13.0543 19.8046 13.5217 19.8201 13.5265C19.8124 13.5598 19.6223 14.2009 19.1495 14.8521C18.7546 15.4253 18.3411 15.9858 17.6835 15.9959C17.371 16.0029 17.1601 15.9156 16.9407 15.8247C16.7108 15.7302 16.4725 15.6313 16.0984 15.6313C15.7021 15.6313 15.4526 15.7329 15.2118 15.8316C15.0033 15.9167 14.8022 15.9986 14.5185 16.0098C13.8927 16.0322 13.4141 15.3981 13.0051 14.8304C12.1871 13.6703 11.5501 11.5613 12.4041 10.1263C12.8174 9.4226 13.572 8.96911 14.3783 8.9571C14.7337 8.95017 15.0742 9.08301 15.3728 9.19986C15.6011 9.28869 15.8048 9.36792 15.9717 9.36792C16.1186 9.36792 16.3162 9.29162 16.5471 9.20279C16.9111 9.06274 17.3561 8.89094 17.8096 8.93789C18.1197 8.94643 19.0021 9.0566 19.5716 9.8625L19.5703 9.86277ZM17.8174 6.6792C17.8801 7.23113 17.6542 7.77507 17.3255 8.17495C16.9815 8.56869 16.4317 8.8696 15.8966 8.83065C15.8262 8.29953 16.0979 7.73479 16.401 7.39013C16.7445 6.99958 17.3409 6.69974 17.8174 6.6792Z" fill="white"/>
<path fill-rule="evenodd" clip-rule="evenodd" d="M51.3986 14.8591C51.2586 15.1592 50.9463 15.3249 50.4904 15.3249C49.8873 15.3249 49.498 14.8981 49.4732 14.224V14.1818H52.1702V13.9172C52.1702 12.7103 51.5284 11.9802 50.4659 11.9802C49.3892 11.9802 48.7053 12.76 48.7053 13.9876C48.7053 15.2155 49.375 15.9707 50.4693 15.9707C51.3426 15.9707 51.9526 15.5471 52.1246 14.8591H51.3986ZM50.4621 12.6247C51.0199 12.6247 51.3847 13.0163 51.4023 13.6195H49.4731C49.5155 13.0198 49.9046 12.6247 50.4621 12.6247ZM46.6212 15.8956H47.3753V13.6268C47.3753 13.0869 47.7787 12.7236 48.3467 12.7236C48.4728 12.7236 48.7042 12.7484 48.7639 12.7694V12.0214C48.6832 12.0004 48.5394 11.9897 48.4309 11.9897C47.9328 11.9897 47.5121 12.2647 47.4033 12.6425H47.3473V12.0532H46.6212V15.8956ZM44.4782 15.9707C45.5933 15.9707 46.2773 15.2193 46.2773 13.9737C46.2773 12.7352 45.5901 11.9802 44.4782 11.9802C43.3629 11.9802 42.6758 12.7352 42.6758 13.9737C42.6758 15.2193 43.3597 15.9707 44.4782 15.9707ZM44.4781 15.2962C43.8224 15.2962 43.4539 14.8126 43.4539 13.9731C43.4539 13.1402 43.8224 12.6531 44.4781 12.6531C45.1303 12.6531 45.5022 13.1402 45.5022 13.9731C45.5022 14.8091 45.1303 15.2962 44.4781 15.2962ZM40.9992 11.1216V12.0707H40.3713V12.7093H40.9992V14.8795C40.9992 15.6203 41.3323 15.9169 42.1706 15.9169C42.3178 15.9169 42.4546 15.899 42.5737 15.878V15.2463C42.4687 15.2569 42.409 15.2639 42.2932 15.2639C41.9181 15.2639 41.7533 15.0875 41.7533 14.6855V12.7093H42.6089V12.0707H41.7533V11.1216H40.9992ZM36.4679 14.5266C36.5242 15.4371 37.278 16.0191 38.4003 16.0191C39.5996 16.0191 40.3499 15.4085 40.3499 14.4348C40.3499 13.6692 39.9222 13.2459 38.8842 13.0023L38.3267 12.8647C37.6673 12.7094 37.4009 12.5013 37.4009 12.138C37.4009 11.6792 37.8147 11.3793 38.4355 11.3793C39.0247 11.3793 39.4314 11.6722 39.5049 12.1412H40.2697C40.2241 11.2841 39.4732 10.6807 38.4459 10.6807C37.3412 10.6807 36.6047 11.2841 36.6047 12.1908C36.6047 12.9388 37.022 13.3835 37.9374 13.5985L38.5896 13.7575C39.2596 13.9162 39.554 14.1491 39.554 14.5373C39.554 14.9886 39.0911 15.317 38.46 15.317C37.783 15.317 37.3132 15.01 37.2465 14.5266H36.4679ZM33.0729 15.2773C32.4418 15.2773 32.0455 14.7763 32.0455 13.9752C32.0455 13.171 32.4418 12.67 33.0766 12.67C33.715 12.67 34.097 13.1606 34.097 13.972C34.097 14.7867 33.715 15.2773 33.0729 15.2773ZM33.2864 11.9897C32.7675 11.9897 32.3185 12.2508 32.087 12.6883H32.0308V12.0532H31.305V17.1412H32.0591V15.3136H32.1185C32.3185 15.7193 32.7496 15.9591 33.2936 15.9591C34.258 15.9591 34.8715 15.1935 34.8715 13.9728C34.8715 12.7518 34.258 11.9897 33.2864 11.9897ZM29.1629 15.2773C28.5315 15.2773 28.1353 14.7763 28.1353 13.9752C28.1353 13.171 28.5315 12.67 29.1664 12.67C29.8047 12.67 30.1868 13.1606 30.1868 13.972C30.1868 14.7867 29.8047 15.2773 29.1629 15.2773ZM29.3764 11.9897C28.8576 11.9897 28.4085 12.2508 28.1771 12.6883H28.1211V12.0532H27.395V17.1412H28.1491V15.3136H28.2086C28.4085 15.7193 28.8397 15.9591 29.3836 15.9591C30.3481 15.9591 30.9616 15.1935 30.9616 13.9728C30.9616 12.7518 30.3481 11.9897 29.3764 11.9897ZM24.8732 11.7287H24.9329L25.6659 13.8812H24.137L24.8732 11.7287ZM26.3287 15.8968H27.1636L25.3366 10.8054H24.4913L22.6641 15.8968H23.4709L23.9373 14.5454H25.8661L26.3287 15.8968Z" fill="white"/>
<path fill-rule="evenodd" clip-rule="evenodd" d="M51.1878 8.67495C51.1209 8.81394 50.9716 8.89103 50.7537 8.89103C50.4655 8.89103 50.2794 8.69283 50.2676 8.38045V8.36071H51.5568V8.238C51.5568 7.67832 51.2499 7.33953 50.742 7.33953C50.2274 7.33953 49.9007 7.70127 49.9007 8.27054C49.9007 8.84035 50.2207 9.19061 50.7438 9.19061C51.1609 9.19061 51.4528 8.99427 51.535 8.67495H51.1878ZM50.7402 7.63943C51.0066 7.63943 51.1812 7.8211 51.1895 8.1012H50.2675C50.2877 7.8227 50.4736 7.63943 50.7402 7.63943ZM47.7915 9.15668H48.1517V8.11577C48.1517 7.84554 48.3346 7.66387 48.6295 7.66387C48.9012 7.66387 49.0369 7.80792 49.0369 8.09283V9.15668H49.3972V8.00613C49.3972 7.58197 49.1625 7.34162 48.7519 7.34162C48.477 7.34162 48.2658 7.46086 48.177 7.66067H48.1485V6.67871H47.7915V9.15668ZM46.5091 6.94178V7.3822H46.2091V7.67858H46.5091V8.68508C46.5091 9.02867 46.6686 9.16632 47.069 9.16632C47.1394 9.16632 47.205 9.15805 47.2618 9.14818V8.85528C47.2114 8.86008 47.1829 8.86355 47.1277 8.86355C46.9485 8.86355 46.8696 8.78165 46.8696 8.59518V7.67858H47.2786V7.3822H46.8696V6.94178H46.5091ZM43.1778 9.1562H43.5383V8.11368C43.5383 7.83545 43.7159 7.66178 44.0057 7.66178C44.274 7.66178 44.4049 7.80424 44.4049 8.09074V9.1562H44.7651V8.00244C44.7651 7.57829 44.5355 7.33953 44.1281 7.33953C43.8532 7.33953 43.6402 7.45878 43.5514 7.65698H43.5247V7.37368H43.1778V9.1562ZM41.7996 9.19061C42.3326 9.19061 42.6595 8.84195 42.6595 8.26414C42.6595 7.68979 42.331 7.33953 41.7996 7.33953C41.2666 7.33953 40.9381 7.68979 40.9381 8.26414C40.9381 8.84195 41.2647 9.19061 41.7996 9.19061ZM41.7993 8.87836C41.4858 8.87836 41.3098 8.65401 41.3098 8.26454C41.3098 7.87826 41.4858 7.65258 41.7993 7.65258C42.111 7.65258 42.2889 7.87826 42.2889 8.26454C42.2889 8.65241 42.111 8.87836 41.7993 8.87836ZM38.5333 7.65995C38.8352 7.65995 39.0248 7.8939 39.0248 8.2655C39.0248 8.63871 38.837 8.86946 38.5333 8.86946C38.2283 8.86946 38.0457 8.64191 38.0457 8.2639C38.0457 7.8891 38.2299 7.65995 38.5333 7.65995ZM38.4312 9.18629C38.6826 9.18629 38.8954 9.06998 39.0045 8.87525H39.033V9.15668H39.3783V6.67871H39.0178V7.65747H38.9911C38.8922 7.46086 38.681 7.34482 38.4312 7.34482C37.9705 7.34482 37.6734 7.70175 37.6734 8.26462C37.6734 8.82936 37.967 9.18629 38.4312 9.18629ZM36.2413 9.18581C36.4813 9.18581 36.6807 9.08417 36.7895 8.90571H36.818V9.1562H37.1649V7.93842C37.1649 7.56201 36.9068 7.33953 36.4495 7.33953C36.0354 7.33953 35.7403 7.53561 35.7035 7.84185H36.052C36.0922 7.71594 36.2314 7.64391 36.4325 7.64391C36.6788 7.64391 36.8063 7.75035 36.8063 7.93842V8.09234L36.3119 8.12009C35.8776 8.14623 35.6331 8.3311 35.6331 8.65201C35.6331 8.97773 35.8893 9.18581 36.2413 9.18581ZM36.334 8.88988C36.138 8.88988 35.9953 8.79652 35.9953 8.63619C35.9953 8.47907 36.1094 8.39557 36.3609 8.3793L36.8067 8.35129V8.50041C36.8067 8.72129 36.6057 8.88988 36.334 8.88988ZM34.3595 9.19061C34.8926 9.19061 35.2192 8.84195 35.2192 8.26414C35.2192 7.68979 34.891 7.33953 34.3595 7.33953C33.8265 7.33953 33.4978 7.68979 33.4978 8.26414C33.4978 8.84195 33.8247 9.19061 34.3595 9.19061ZM34.3593 8.87836C34.0457 8.87836 33.8697 8.65401 33.8697 8.26454C33.8697 7.87826 34.0457 7.65258 34.3593 7.65258C34.671 7.65258 34.8488 7.87826 34.8488 8.26454C34.8488 8.65241 34.671 8.87836 34.3593 8.87836ZM32.6023 9.15695H32.9628V6.67871H32.6023V9.15695ZM30.406 9.1562H30.7662V8.11368C30.7662 7.83545 30.944 7.66178 31.2339 7.66178C31.5021 7.66178 31.6328 7.80424 31.6328 8.09074V9.1562H31.9932V8.00244C31.9932 7.57829 31.7634 7.33953 31.3563 7.33953C31.0813 7.33953 30.8686 7.45878 30.7798 7.65698H30.7529V7.37368H30.406V9.1562ZM29.9479 7.37426H29.5874L29.2624 8.73449H29.2338L28.8584 7.37426H28.5131L28.1377 8.73449H28.1108L27.7841 7.37426H27.4186L27.9215 9.15678H28.2918L28.6672 7.84403H28.6958L29.0731 9.15678H29.4469L29.9479 7.37426ZM26.2637 9.19061C26.7967 9.19061 27.1236 8.84195 27.1236 8.26414C27.1236 7.68979 26.7954 7.33953 26.2637 7.33953C25.7307 7.33953 25.4022 7.68979 25.4022 8.26414C25.4022 8.84195 25.7291 9.19061 26.2637 9.19061ZM26.2629 8.87836C25.9496 8.87836 25.7734 8.65401 25.7734 8.26454C25.7734 7.87826 25.9496 7.65258 26.2629 7.65258C26.5746 7.65258 26.7525 7.87826 26.7525 8.26454C26.7525 8.65241 26.5746 8.87836 26.2629 8.87836ZM23.3068 7.12961H23.7628C24.2638 7.12961 24.5606 7.44065 24.5606 7.97418C24.5606 8.51598 24.2689 8.82356 23.7628 8.82356H23.3068V7.12961ZM22.9307 6.79551V9.15744H23.8042C24.5249 9.15744 24.9422 8.72368 24.9422 7.96927C24.9422 7.22607 24.5214 6.79551 23.8042 6.79551H22.9307Z" fill="white"/>
</svg>
