<svg width="127" height="100" viewBox="0 0 127 100" fill="none" xmlns="http://www.w3.org/2000/svg">
<g clip-path="url(#clip0_123_122)">
<path d="M9.47808 17.8495L41.0719 35.4839C46.4879 38.4947 53.7094 38.4947 59.1254 35.4839L104.259 10.5377C106.967 8.81724 110.578 8.81724 113.738 10.5377C116.897 12.2581 118.251 14.8387 118.251 18.2796V56.9893C118.251 60.4301 116.446 63.0108 113.738 64.7312L68.6036 89.6774C65.4442 91.3979 62.2848 91.3979 59.1254 89.6774L13.9915 64.7312C10.8321 63.0108 9.47808 60.4301 9.47808 56.9893V17.8495ZM47.8419 23.871C49.196 24.7312 50.55 24.7312 52.3553 23.871L58.6741 20L28.8857 3.65595C24.8236 1.0753 23.0183 0.645195 19.8589 0.215088C16.2482 0.215088 12.6375 1.0753 9.47808 2.79573C3.61067 5.80648 0.451294 11.3979 0.451294 17.8495V56.9893C0.451294 63.4409 3.61067 69.0323 9.47808 72.043L54.612 97.4194C60.0281 100.43 67.2495 100.43 72.6656 97.4194L117.8 72.043C123.667 69.0323 126.826 63.4409 126.826 56.9893V17.8495C126.826 11.3979 123.667 5.80648 117.8 2.79573C112.383 -0.21502 105.162 -0.21502 99.746 2.79573L54.612 27.742C51.4527 29.4624 48.2933 29.4624 45.1339 27.742L13.5401 10.1076H13.9915C16.6995 8.38713 20.3102 8.38713 23.4696 10.1076L47.8419 23.871Z" fill="white"/>
</g>
<defs>
<clipPath id="clip0_123_122">
<rect width="127" height="100" fill="white"/>
</clipPath>
</defs>
</svg>
