<svg width="140" height="28" viewBox="0 0 140 28" fill="none" xmlns="http://www.w3.org/2000/svg">
<g clip-path="url(#clip0_116_12)">
<path d="M99.1 21.2001C96.6 21.2001 94.5 19.1001 94.5 16.5001C94.5 13.9001 96.6 11.8001 99.1 11.8001C101.6 11.8001 103.7 13.9001 103.7 16.5001C103.7 19.1001 101.6 21.2001 99.1 21.2001ZM89.9 16.5001C89.9 21.7001 94 25.9001 99.1 25.9001C104.2 25.9001 108.3 21.7001 108.3 16.5001C108.3 11.3001 104.2 7.1001 99.1 7.1001C94 7.2001 89.9 11.4001 89.9 16.5001ZM78.4 21.2001C75.9 21.2001 73.8 19.1001 73.8 16.5001C73.8 13.9001 75.9 11.8001 78.4 11.8001C80.9 11.8001 83 13.9001 83 16.5001C83 19.1001 80.9 21.2001 78.4 21.2001ZM69.2 16.5001C69.2 21.7001 73.3 25.9001 78.4 25.9001C83.5 25.9001 87.6 21.7001 87.6 16.5001C87.6 11.3001 83.5 7.1001 78.4 7.1001C73.3 7.2001 69.2 11.4001 69.2 16.5001ZM135.2 21.2001H130.6C128.1 21.2001 126 19.1001 126 16.5001C126 13.9001 128.1 11.8001 130.6 11.8001C133.1 11.8001 135.2 13.9001 135.2 16.5001V21.2001ZM121.4 16.5001C121.4 21.7001 125.5 25.9001 130.6 25.9001H139.8V16.5001C139.8 11.3001 135.7 7.1001 130.6 7.1001C125.5 7.2001 121.4 11.4001 121.4 16.5001ZM115.2 16.5001V0.100098H110.6V16.5001C110.6 21.7001 114.7 25.8001 119.8 25.9001V21.2001C117.2 21.2001 115.2 19.1001 115.2 16.5001ZM57.6 7.2001C54.9 7.2001 52.4 8.4001 50.7 10.4001C49 8.5001 46.5 7.2001 43.8 7.2001C38.7 7.2001 34.6 11.4001 34.6 16.6001V26.0001H39.2V16.6001C39.2 14.0001 41.3 11.9001 43.8 11.9001C46.2 11.9001 48.2 13.8001 48.4 16.2001C48.4 16.3001 48.4 25.9001 48.4 25.9001H53C53 25.9001 53 16.3001 53 16.2001C53.2 13.8001 55.2 11.9001 57.6 11.9001C60.1 11.9001 62.2 14.0001 62.2 16.6001V26.0001H66.8V16.6001C66.8 11.4001 62.7 7.2001 57.6 7.2001Z" fill="white"/>
<path d="M2.09998 8.90029L9.09998 13.0003C10.3 13.7003 11.9 13.7003 13.1 13.0003L23.1 7.20029C23.7 6.80029 24.5 6.80029 25.2 7.20029C25.9 7.60029 26.2 8.20029 26.2 9.00029V18.0003C26.2 18.8003 25.8 19.4003 25.2 19.8003L15.2 25.6003C14.5 26.0003 13.8 26.0003 13.1 25.6003L3.09998 19.8003C2.39998 19.4003 2.09998 18.8003 2.09998 18.0003V8.90029ZM10.6 10.3003C10.9 10.5003 11.2 10.5003 11.6 10.3003L13 9.40029L6.39998 5.60029C5.49998 5.00029 5.09998 4.90029 4.39998 4.80029C3.59998 4.80029 2.79998 5.00029 2.09998 5.40029C0.799976 6.10029 0.0999756 7.40029 0.0999756 8.90029V18.0003C0.0999756 19.5003 0.799976 20.8003 2.09998 21.5003L12.1 27.4003C13.3 28.1003 14.9 28.1003 16.1 27.4003L26.1 21.5003C27.4 20.8003 28.1 19.5003 28.1 18.0003V8.90029C28.1 7.40029 27.4 6.10029 26.1 5.40029C24.9 4.70029 23.3 4.70029 22.1 5.40029L12.1 11.2003C11.4 11.6003 10.7 11.6003 9.99998 11.2003L2.99998 7.10029H3.09998C3.69998 6.70029 4.49998 6.70029 5.19998 7.10029L10.6 10.3003Z" fill="white"/>
</g>
<defs>
<clipPath id="clip0_116_12">
<rect width="140" height="28" fill="white"/>
</clipPath>
</defs>
</svg>
