<svg width="67" height="24" viewBox="0 0 67 24" fill="none" xmlns="http://www.w3.org/2000/svg">
<rect x="0.874023" y="0.276855" width="66.1262" height="22.9417" rx="11.4709" fill="#4C0D94"/>
<path fill-rule="evenodd" clip-rule="evenodd" d="M17.9912 10.1169L16.7103 11.4265L17.9827 12.7413L19.6708 11.7546C19.8081 11.6644 19.8803 11.5814 19.8889 11.427C19.8761 11.2587 19.8043 11.1933 19.6705 11.1082L17.9912 10.1169ZM12.3242 15.9095L16.4709 11.6874L17.6748 12.9217L12.6113 15.8647C12.514 15.9084 12.4535 15.9215 12.3242 15.9092V15.9095ZM16.2222 11.4303L12.097 7.20845C12.0757 7.24794 12.0714 7.31383 12.0714 7.38959L12.0706 10.5182C12.0704 12.0841 12.0701 13.5414 12.0706 15.4397C12.0712 15.5259 12.0794 15.6169 12.1008 15.6569L16.2219 11.4303H16.2222ZM16.4664 11.1785L12.3413 6.9522C12.4229 6.93033 12.5178 6.9546 12.6452 7.01836L17.6746 9.9437L16.4664 11.1785Z" fill="white"/>
<path fill-rule="evenodd" clip-rule="evenodd" d="M25.3324 7.98437H25.4113C25.4113 7.98811 25.4116 7.99184 25.4116 7.99558C25.5153 8.75745 24.9961 9.19628 24.3736 9.19068C23.7613 9.18988 23.2651 8.6945 23.2651 8.08254C23.2651 7.47058 23.7613 6.9744 24.3736 6.9744C24.6935 6.9744 24.9626 7.08618 25.1465 7.28038L24.9303 7.49646C24.7954 7.35854 24.6042 7.28305 24.3829 7.28305C23.9413 7.28305 23.5832 7.64105 23.5832 8.08254C23.5832 8.52404 23.9413 8.88203 24.3829 8.88203C24.7663 8.88203 25.0529 8.68996 25.122 8.28368H24.3877V7.98437H25.3324ZM35.4366 7.03701H35.4992L36.4402 8.57624V7.03701H36.7852V9.14045H36.4402L35.4366 7.49878V9.14045H35.0915V7.03701H35.4366ZM29.6958 9.14045H30.0411V7.03701H29.6958V9.14045ZM31.2326 7.2883V9.14045H30.8875V7.2883H30.3542V7.03701H31.7658V7.2883H31.2326ZM28.1586 7.2883V9.14045H27.8136V7.2883H27.2803V7.03701H28.6919V7.2883H28.1586ZM26.0259 8.19877V8.88942H26.9354V9.14045H26.0259H25.6806V7.06849V7.03701H26.9354V7.2883H26.0259V7.94748H26.8413V8.19877H26.0259ZM33.6797 8.85814C34.1127 8.85814 34.4638 8.50681 34.4638 8.07332C34.4638 7.63983 34.1127 7.2885 33.6797 7.2885C33.2466 7.2885 32.8952 7.63983 32.8952 8.07332C32.8952 8.50681 33.2466 8.85814 33.6797 8.85814ZM33.6795 9.20392C33.0559 9.20392 32.5501 8.69787 32.5501 8.07364C32.5501 7.44941 33.0559 6.94336 33.6795 6.94336C34.3032 6.94336 34.8087 7.44941 34.8087 8.07364C34.8087 8.69787 34.3032 9.20392 33.6795 9.20392Z" fill="white"/>
<path fill-rule="evenodd" clip-rule="evenodd" d="M27.5796 12.7825H27.7441V12.8058C27.9609 14.3941 26.8775 15.3088 25.5785 15.2971C24.301 15.2952 23.2651 14.2631 23.2651 12.9874C23.2651 11.7115 24.301 10.6772 25.5785 10.6772C26.2464 10.6772 26.8077 10.9101 27.1916 11.3148L26.7405 11.7654C26.4589 11.4781 26.0592 11.3207 25.598 11.3207C24.6762 11.3207 23.9291 12.0666 23.9291 12.9874C23.9291 13.9078 24.6762 14.6539 25.598 14.6539C26.3979 14.6539 26.9962 14.2535 27.1402 13.4062H25.6078V12.7825H27.5796ZM43.4666 11.4882V12.938H44.5486C44.5486 12.938 45.0976 12.938 45.0976 12.2132C45.0976 11.4882 44.5486 11.4882 44.5486 11.4882H43.4666ZM43.4663 13.537V15.2307H42.8389V10.8352H44.7742C44.7742 10.8352 45.7978 11.0097 45.7978 12.1864C45.7978 13.3628 44.7742 13.537 44.7742 13.537H43.4663ZM29.4545 14.7075C29.9185 14.7075 30.2942 14.3014 30.2942 13.8007C30.2942 13.3003 29.9185 12.8945 29.4545 12.8945C28.9911 12.8945 28.6154 13.3003 28.6154 13.8007C28.6154 14.3014 28.9911 14.7075 29.4545 14.7075ZM29.4638 15.2924C28.6391 15.2924 27.9707 14.6247 27.9707 13.8009C27.9707 12.9774 28.6391 12.31 29.4638 12.31C30.2885 12.31 30.9573 12.9774 30.9573 13.8009C30.9573 14.6247 30.2885 15.2924 29.4638 15.2924ZM32.6853 14.7075C33.149 14.7075 33.5246 14.3014 33.5246 13.8007C33.5246 13.3003 33.149 12.8945 32.6853 12.8945C32.2216 12.8945 31.8459 13.3003 31.8459 13.8007C31.8459 14.3014 32.2216 14.7075 32.6853 14.7075ZM32.6948 15.2924C31.8701 15.2924 31.2014 14.6247 31.2014 13.8009C31.2014 12.9774 31.8701 12.31 32.6948 12.31C33.5195 12.31 34.188 12.9774 34.188 13.8009C34.188 14.6247 33.5195 15.2924 32.6948 15.2924ZM35.9188 14.7261C36.3662 14.7261 36.7288 14.3161 36.7288 13.8101C36.7288 13.304 36.3662 12.894 35.9188 12.894C35.4716 12.894 35.1087 13.304 35.1087 13.8101C35.1087 14.3161 35.4716 14.7261 35.9188 14.7261ZM36.6957 12.4054L37.3092 12.4105V15.1782C37.3092 15.8854 36.8887 16.6318 35.8984 16.6318C34.9081 16.6318 34.5884 15.7536 34.5884 15.7536L35.1518 15.5162C35.1518 15.5162 35.3238 16.0574 35.9278 16.0574C36.6157 16.0574 36.6957 15.4313 36.6957 15.2168V14.9165C36.6957 14.9165 36.4578 15.2894 35.8667 15.2894C35.226 15.2894 34.4642 14.7396 34.4642 13.8027C34.4642 12.8661 35.1814 12.3302 35.8739 12.3104C36.429 12.295 36.6957 12.6791 36.6957 12.6791V12.4054ZM37.7578 15.2211H38.4214V10.8352H37.7578V15.2211ZM40.6796 13.1991C40.6796 13.1991 40.4301 12.819 40.0472 12.8889C39.2374 13.0372 39.3392 13.7465 39.3392 13.7465L40.6796 13.1991ZM41.4347 13.4315L39.4504 14.2523C39.4504 14.2523 39.5787 14.7061 40.1751 14.7093C40.6423 14.7114 40.906 14.2947 40.906 14.2947L41.4094 14.6359C41.4094 14.6359 41.0033 15.2935 40.1714 15.2935C39.1489 15.2935 38.6985 14.3988 38.6985 13.8177C38.6985 13.2578 39.0561 12.31 40.1077 12.31C41.1596 12.31 41.4347 13.4315 41.4347 13.4315ZM50.9221 15.0627L49.8038 12.4042H50.431L51.236 14.3171L52.0343 12.4194H52.6614L50.9643 16.4539H50.3371L50.9221 15.0627ZM49.0725 13.9741C49.0725 13.9741 47.8638 13.6478 47.8219 14.3273C47.7798 15.007 48.9815 14.6804 49.0887 14.1989C49.0887 14.0455 49.0725 13.9741 49.0725 13.9741ZM49.1171 14.9152C48.9443 15.0579 48.668 15.1924 48.2316 15.2196C47.2322 15.282 47.2317 14.3691 47.2317 14.3075C47.2317 14.2459 47.1823 13.5014 47.9774 13.3832C48.5403 13.2994 48.9349 13.4389 49.1171 13.5278V13.3987C49.0723 13.2274 48.9336 12.9131 48.5179 12.9131C47.9468 12.9131 47.8204 13.2223 47.8204 13.2223L47.2978 12.9131C47.2978 12.9131 47.5903 12.31 48.4678 12.31C49.5589 12.31 49.7444 13.0631 49.7444 13.3168V13.3205V15.2281H49.1171V14.9152ZM46.1646 15.2307H46.7923V10.8352H46.1646V15.2307Z" fill="white"/>
</svg>
