<?xml version="1.0" encoding="UTF-8"?>
<svg xmlns="http://www.w3.org/2000/svg" width="24" height="16" viewBox="0 0 9600 4800">
  <path fill="#f00" d="m0 0h9600v4800H0z"/>
  <path fill="#fff" d="m2400 0h4800v4800H2400z"/>
  <path fill="#f00" d="m4800 960 107 732 320-649 121 725 317-650 118 736 314-669 123 748 330-696 84 756 360-678 90 746 377-708 58 900 1-900 371 705 97-742 341 683 71-757 352 669 131-748 303 668 113-739 317 650 121-722 321 651 93-733M6240 3480c0 165-57 324-150 458l-226 301c-64 83-169 132-274 132s-210-49-273-132l-226-301c-93-134-150-293-150-458v-120h1299z"/>
  <path fill="#fff" d="m4800 2640 150 460-150-83-150 83z"/>
</svg>
