<?xml version="1.0" encoding="UTF-8"?> <svg xmlns="http://www.w3.org/2000/svg" width="140" height="28" viewBox="0 0 140 28"><g><g><path fill="#fff" d="M99.07 21.233c-2.542 0-4.603-2.097-4.603-4.684s2.061-4.685 4.603-4.685 4.603 2.098 4.603 4.685c0 2.587-2.06 4.684-4.603 4.684zm-9.208-4.684c0 5.175 4.123 9.37 9.208 9.37 5.086 0 9.208-4.195 9.208-9.37 0-5.176-4.122-9.371-9.208-9.371-5.085 0-9.208 4.195-9.208 9.37zm-11.5 4.684c-2.542 0-4.603-2.097-4.603-4.684s2.061-4.685 4.603-4.685c2.543 0 4.603 2.098 4.603 4.685 0 2.587-2.06 4.684-4.603 4.684zm-9.208-4.684c0 5.175 4.123 9.37 9.208 9.37 5.086 0 9.208-4.195 9.208-9.37 0-5.176-4.122-9.371-9.208-9.371-5.085 0-9.208 4.195-9.208 9.37zm66.084 4.685h-4.604c-2.54 0-4.605-2.102-4.605-4.685 0-2.584 2.066-4.686 4.605-4.686 2.538 0 4.604 2.101 4.604 4.686zm-13.813-4.685c0 5.175 4.123 9.37 9.209 9.37h9.207v-9.37c0-5.176-4.122-9.372-9.207-9.372-5.086 0-9.209 4.196-9.209 9.372zm-6.253 0V.15h-4.604v16.399c0 5.162 4.1 9.349 9.169 9.37v-4.685c-2.522-.022-4.565-2.115-4.565-4.685M57.629 7.177c-2.744 0-5.208 1.223-6.895 3.162-1.688-1.939-4.15-3.162-6.896-3.162-5.085 0-9.208 4.196-9.208 9.371v9.372h4.604v-9.372c0-2.583 2.065-4.685 4.604-4.685 2.419 0 4.408 1.908 4.59 4.323-.004.12-.007 9.734-.007 9.734h4.625s-.003-9.614-.007-9.734c.183-2.415 2.172-4.323 4.59-4.323 2.539 0 4.604 2.102 4.604 4.685v9.372h4.604v-9.372c0-5.175-4.123-9.37-9.208-9.37"></path></g><g><path fill="#fff" d="M2.078 8.852l6.99 4.094a3.893 3.893 0 0 0 4.013 0l9.971-5.84a1.973 1.973 0 0 1 2.067 0c.666.39 1.034 1.037 1.034 1.817v9.11c0 .78-.368 1.427-1.034 1.816l-9.97 5.84c-.666.389-1.402.389-2.068 0l-9.97-5.84c-.666-.39-1.034-1.036-1.034-1.815V8.923zm8.499 1.433c.33.19.647.193.977 0l1.466-.856L6.447 5.59c-.933-.545-1.303-.687-2.08-.74a3.958 3.958 0 0 0-2.281.548C.813 6.142.07 7.442.07 8.929v9.13c0 1.487.742 2.787 2.016 3.531l10.018 5.85a3.922 3.922 0 0 0 4.032 0l10.018-5.85c1.273-.744 2.016-2.044 2.016-3.532V8.93c0-1.487-.742-2.787-2.016-3.531a3.921 3.921 0 0 0-4.032 0l-10.018 5.85c-.669.39-1.408.39-2.077 0L3.003 7.146l.06-.036a1.987 1.987 0 0 1 2.077 0z"></path></g></g></svg> 